<?xml version="1.0" encoding="UTF-8"?>
<svg width="571px" height="561px" viewBox="0 0 571 561" version="1.1" xmlns="http://www.w3.org/2000/svg" xmlns:xlink="http://www.w3.org/1999/xlink">
    <!-- Generator: Sketch 64 (93537) - https://sketch.com -->
    <title>Group 8</title>
    <desc>Created with Sketch.</desc>
    <defs>
        <linearGradient x1="50%" y1="74.2066147%" x2="50%" y2="100%" id="linearGradient-1">
            <stop stop-color="#F4F4F4" offset="0%"></stop>
            <stop stop-color="#FFFFFF" offset="100%"></stop>
        </linearGradient>
        <rect id="path-2" x="0" y="0" width="249" height="249" rx="75"></rect>
        <filter x="-70.3%" y="-50.2%" width="240.6%" height="240.6%" filterUnits="objectBoundingBox" id="filter-4">
            <feOffset dx="0" dy="50" in="SourceAlpha" result="shadowOffsetOuter1"></feOffset>
            <feGaussianBlur stdDeviation="50" in="shadowOffsetOuter1" result="shadowBlurOuter1"></feGaussianBlur>
            <feColorMatrix values="0 0 0 0 0   0 0 0 0 0   0 0 0 0 0  0 0 0 0.2 0" type="matrix" in="shadowBlurOuter1"></feColorMatrix>
        </filter>
        <linearGradient x1="77.8947178%" y1="4.36675296%" x2="40.0829973%" y2="87.1030399%" id="linearGradient-5">
            <stop stop-color="#2AFF38" offset="0%"></stop>
            <stop stop-color="#00D948" offset="100%"></stop>
        </linearGradient>
    </defs>
    <g id="Page-1" stroke="none" stroke-width="1" fill="none" fill-rule="evenodd">
        <g id="Influencers" transform="translate(-675.000000, -142.000000)">
            <g id="1">
                <g id="Group-8" transform="translate(675.000000, 117.000000)">
                    <g id="icon" transform="translate(0.000000, 25.000000)">
                        <g id="Group-13" transform="translate(0.000000, 222.000000)">
                            <g id="Group-15" transform="translate(310.887015, 257.601695)"></g>
                            <g id="Group-16" opacity="0.4" transform="translate(313.765599, 0.000000)" fill="#EFEFEF" fill-rule="nonzero">
                                <g id="Group-15" transform="translate(46.460029, 135.384165) rotate(-12.000000) translate(-46.460029, -135.384165) translate(40.460029, 21.884165)">
                                    <polygon id="Rectangle-path" points="0.619050209 0.527443061 11.4214764 0.527443061 11.4214764 204.932203 0.619050209 204.932203"></polygon>
                                    <polygon id="Rectangle-path" points="0.619050209 216.006698 11.4214764 216.006698 11.4214764 226.787726 0.619050209 226.787726"></polygon>
                                </g>
                                <g id="Group-15-Copy" transform="translate(62.769336, 121.002955) rotate(-16.000000) translate(-62.769336, -121.002955) translate(56.769336, 7.502955)">
                                    <polygon id="Rectangle-path" points="0.619050209 0.527443061 11.4214764 0.527443061 11.4214764 204.932203 0.619050209 204.932203"></polygon>
                                    <polygon id="Rectangle-path" points="0.619050209 216.006698 11.4214764 216.006698 11.4214764 226.787726 0.619050209 226.787726"></polygon>
                                </g>
                                <g id="Group-15-Copy-2" transform="translate(21.812685, 113.768500) rotate(-8.000000) translate(-21.812685, -113.768500) translate(15.812685, 0.268500)">
                                    <polygon id="Rectangle-path" points="0.393044975 0.0888017494 11.1954711 0.0888017494 11.1954711 204.493562 0.393044975 204.493562"></polygon>
                                    <polygon id="Rectangle-path" points="0.393044975 215.568056 11.1954711 215.568056 11.1954711 226.349084 0.393044975 226.349084"></polygon>
                                </g>
                            </g>
                            <g id="Group-16" opacity="0.4" transform="translate(206.193929, 124.000000) scale(-1, 1) translate(-206.193929, -124.000000) translate(156.193929, 0.000000)" fill="#EFEFEF" fill-rule="nonzero">
                                <g id="Group-15" transform="translate(46.460029, 135.384165) rotate(-12.000000) translate(-46.460029, -135.384165) translate(40.460029, 21.884165)">
                                    <polygon id="Rectangle-path" points="0.619050209 0.527443061 11.4214764 0.527443061 11.4214764 204.932203 0.619050209 204.932203"></polygon>
                                    <polygon id="Rectangle-path" points="0.619050209 216.006698 11.4214764 216.006698 11.4214764 226.787726 0.619050209 226.787726"></polygon>
                                </g>
                                <g id="Group-15-Copy" transform="translate(62.769336, 121.002955) rotate(-16.000000) translate(-62.769336, -121.002955) translate(56.769336, 7.502955)">
                                    <polygon id="Rectangle-path" points="0.619050209 0.527443061 11.4214764 0.527443061 11.4214764 204.932203 0.619050209 204.932203"></polygon>
                                    <polygon id="Rectangle-path" points="0.619050209 216.006698 11.4214764 216.006698 11.4214764 226.787726 0.619050209 226.787726"></polygon>
                                </g>
                                <g id="Group-15-Copy-2" transform="translate(21.812685, 113.768500) rotate(-8.000000) translate(-21.812685, -113.768500) translate(15.812685, 0.268500)">
                                    <polygon id="Rectangle-path" points="0.393044975 0.0888017494 11.1954711 0.0888017494 11.1954711 204.493562 0.393044975 204.493562"></polygon>
                                    <polygon id="Rectangle-path" points="0.393044975 215.568056 11.1954711 215.568056 11.1954711 226.349084 0.393044975 226.349084"></polygon>
                                </g>
                            </g>
                            <g id="Group-14" transform="translate(0.000000, 208.762712)"></g>
                            <g id="Group-14-Copy" transform="translate(493.197302, 273.881356) scale(-1, 1) translate(-493.197302, -273.881356) translate(417.394604, 208.762712)"></g>
                        </g>
                        <path d="M145.5,157 C176.100682,157 201,132.100682 201,101.5 C201,70.8993182 176.100682,46 145.5,46 C114.899318,46 90,70.8993182 90,101.5 C90,132.100682 114.899318,157 145.5,157 Z M145.5,56.0909091 C170.535545,56.0909091 190.909091,76.4644545 190.909091,101.5 C190.909091,126.535545 170.535545,146.909091 145.5,146.909091 C120.464455,146.909091 100.090909,126.535545 100.090909,101.5 C100.090909,76.4644545 120.464455,56.0909091 145.5,56.0909091 Z" id="Shape" fill="#F8F8F8" fill-rule="nonzero"></path>
                        <path d="M349.496719,534.009512 C364.395629,534.009512 376.516867,546.117445 376.516867,561 L376.516867,561 L365.708808,561 C365.708808,552.071547 358.434984,544.805707 349.496719,544.805707 L349.496719,544.805707 Z M306.032216,528.394872 L306.032216,539.191067 C294.110927,539.191067 284.416097,548.875254 284.416097,560.783457 L284.416097,560.783457 L273.608038,560.783457 C273.608038,542.921152 288.150282,528.394872 306.032216,528.394872 L306.032216,528.394872 Z M422.412409,430.579487 C436.683382,430.579487 448.827273,439.831423 453.14986,452.647325 C471.940744,453.040681 488.525889,464.10661 496.289289,481.127057 C507.924165,484.047427 518.175609,491.226897 524.941455,501.34833 C550.556556,502.697855 571,523.87999 571,549.801654 L571,549.801654 L571,560.597849 L560.191941,560.597849 L560.191941,549.801654 C560.191941,528.964998 543.223287,512.014971 522.363733,512.014971 C511.517845,512.014971 501.174532,516.678927 493.992576,524.808462 L493.992576,524.808462 L485.886532,517.666779 C492.798286,509.844936 501.985136,504.522412 512.015016,502.336182 C504.941141,494.870613 495.035554,490.422581 484.535524,490.422581 C463.67597,490.422581 446.707316,507.372607 446.707316,528.209264 L446.710146,527.975834 C450.03539,534.537085 451.91005,541.952063 451.91005,549.801654 L451.91005,549.801654 L451.91005,560.597849 L441.10199,560.597849 L441.10199,549.801654 C441.10199,528.964998 424.133337,512.014971 403.273782,512.014971 C392.427895,512.014971 382.084582,516.678927 374.902626,524.808462 L374.902626,524.808462 L366.796582,517.666779 C373.708336,509.844936 382.895186,504.522412 392.925065,502.336182 C385.851191,494.870613 375.945604,490.422581 365.445574,490.422581 C344.58602,490.422581 327.617366,507.372607 327.617366,528.209264 L327.617366,528.209264 L316.809307,528.209264 C316.809307,501.904334 337.863407,480.463091 364.013506,479.696561 C357.047712,469.656099 345.650613,463.432093 333.021396,463.432093 L333.021396,463.432093 L333.021396,452.635897 C352.238126,452.635897 369.293244,463.793765 377.199339,481.127057 C388.834215,484.047427 399.085659,491.226897 405.851505,501.34833 C418.211417,501.999509 429.367214,507.268311 437.603169,515.459089 C443.104985,495.293671 461.339246,480.334528 483.103457,479.696561 C476.137662,469.656099 464.740564,463.432093 452.111346,463.432093 L452.111346,463.432093 L452.111,462.968 L451.956,462.968 L451.956503,463.432093 C440.035213,463.432093 430.340384,473.11628 430.340384,485.024483 L430.340384,490.422581 L419.532325,490.422581 L419.532325,485.024483 C419.532325,470.577745 429.044854,458.313204 442.143199,454.151066 C438.762816,446.627346 431.191309,441.375682 422.412409,441.375682 L422.412409,430.579487 Z M148.587591,430.579487 L148.587591,441.375682 C139.808691,441.375682 132.237184,446.627346 128.855542,454.151475 C141.955146,458.313204 151.467675,470.577745 151.467675,485.024483 L151.467675,485.024483 L151.467675,490.422581 L140.659616,490.422581 L140.659616,485.024483 C140.659616,473.11628 130.964787,463.432093 119.043497,463.432093 L119.043497,463.432093 L119.043,462.968 L118.888,462.968 L118.888654,463.432093 C106.259436,463.432093 94.8623377,469.656099 87.8965434,479.696561 C109.130134,480.318974 127.003799,494.572763 132.974126,513.993251 C141.014263,506.663258 151.524575,501.98622 163.095522,501.353728 C169.720862,491.410433 179.92367,484.085214 191.84496,481.11626 C199.745651,463.788367 216.800769,452.635897 236.012095,452.635897 L236.012095,452.635897 L236.012095,463.432093 C223.382877,463.432093 211.985778,469.656099 205.019984,479.696561 C231.170084,480.463091 252.224184,501.904334 252.224184,528.209264 L252.224184,528.209264 L241.416124,528.209264 C241.416124,507.372607 224.447471,490.422581 203.587916,490.422581 C182.728362,490.422581 165.759708,507.372607 165.759708,528.209264 L165.759708,528.209264 L154.951649,528.209264 C154.951649,522.881342 155.848718,517.763945 157.442906,512.965036 C148.311303,515.022579 140.416899,520.380975 135.096816,527.715709 C135.099916,527.879642 135.100743,528.044357 135.100743,528.209264 L134.744761,528.209331 C130.452576,534.330359 127.9315,541.775433 127.9315,549.801654 L127.9315,549.801654 L127.9315,560.597849 L117.123441,560.597849 L117.123441,549.801654 C117.123441,540.626227 119.685165,532.044761 124.131416,524.726499 C122.368516,505.516677 106.148931,490.422581 86.4644755,490.422581 C75.9644458,490.422581 66.0588593,494.870613 58.9849844,502.336182 C69.0148636,504.522412 78.2017141,509.844936 85.1134681,517.666779 L77.0074235,524.808462 C69.825468,516.678927 59.4821551,512.014971 48.6362675,512.014971 C27.7767128,512.014971 10.8080594,528.964998 10.8080594,549.801654 L10.8080594,560.597849 L0,560.597849 L0,549.801654 C0,523.87999 20.4434444,502.697855 46.0585453,501.34833 C52.8243905,491.226897 63.0758349,484.047427 74.7107109,481.127057 C82.474111,464.10661 99.0592564,453.040681 117.850292,452.646772 C122.172727,439.831423 134.316618,430.579487 148.587591,430.579487 L148.587591,430.579487 Z M279.244332,501.620926 L279.244332,512.417122 L268.436273,512.417122 L268.436273,501.620926 L279.244332,501.620926 Z M300.860451,501.620926 L300.860451,512.417122 L290.052392,512.417122 L290.052392,501.620926 L300.860451,501.620926 Z M322.47657,480.028536 L322.47657,490.824731 L311.668511,490.824731 L311.668511,480.028536 L322.47657,480.028536 Z M257.628213,480.028536 L257.628213,490.824731 L246.820154,490.824731 L246.820154,480.028536 L257.628213,480.028536 Z M300.860451,264.246134 L300.860451,490.824731 L290.052392,490.824731 L290.052392,264.246134 L300.860451,264.246134 Z M279.244332,264.246134 L279.244332,490.824731 L268.436273,490.824731 L268.436273,264.246134 L279.244332,264.246134 Z M322.47657,264.246134 L322.47657,468.938462 L311.668511,468.938462 L311.668511,264.246134 L322.47657,264.246134 Z M257.628213,264.246134 L257.628213,468.938462 L246.820154,468.938462 L246.820154,264.246134 L257.628213,264.246134 Z M480.134105,300.158974 L480.134105,308.92674 C487.478081,308.92674 493.454496,314.827446 493.454496,322.078388 L493.454496,322.078388 L484.574235,322.078388 C484.574235,319.662869 482.580617,317.694505 480.134105,317.694505 L480.134105,317.694505 L471.253844,317.694505 C468.807332,317.694505 466.813714,319.662869 466.813714,322.078388 C466.813714,324.493908 468.807332,326.462271 471.253844,326.462271 L471.253844,326.462271 L480.134105,326.462271 C487.478081,326.462271 493.454496,332.362977 493.454496,339.613919 C493.454496,346.864862 487.478081,352.765568 480.134105,352.765568 L480.134105,352.765568 L480.134105,361.533333 L471.253844,361.533333 L471.253844,352.765568 C463.909868,352.765568 457.933453,346.864862 457.933453,339.613919 L457.933453,339.613919 L466.813714,339.613919 C466.813714,342.029439 468.807332,343.997802 471.253844,343.997802 L471.253844,343.997802 L480.134105,343.997802 C482.580617,343.997802 484.574235,342.029439 484.574235,339.613919 C484.574235,337.1984 482.580617,335.230037 480.134105,335.230037 L480.134105,335.230037 L471.253844,335.230037 C463.909868,335.230037 457.933453,329.32933 457.933453,322.078388 C457.933453,314.827446 463.909868,308.92674 471.253844,308.92674 L471.253844,308.92674 L471.253844,300.158974 L480.134105,300.158974 Z M114.963377,240.702564 L114.963377,245.908425 C119.330066,245.908425 122.88361,249.411969 122.88361,253.717216 L122.88361,253.717216 L117.603455,253.717216 C117.603455,252.283001 116.41806,251.114286 114.963377,251.114286 L114.963377,251.114286 L109.683222,251.114286 C108.228539,251.114286 107.043145,252.283001 107.043145,253.717216 C107.043145,255.151431 108.228539,256.320147 109.683222,256.320147 L109.683222,256.320147 L114.963377,256.320147 C119.330066,256.320147 122.88361,259.823691 122.88361,264.128938 C122.88361,268.434185 119.330066,271.937729 114.963377,271.937729 L114.963377,271.937729 L114.963377,277.14359 L109.683222,277.14359 L109.683222,271.937729 C105.316534,271.937729 101.762989,268.434185 101.762989,264.128938 L101.762989,264.128938 L107.043145,264.128938 C107.043145,265.563152 108.228539,266.731868 109.683222,266.731868 L109.683222,266.731868 L114.963377,266.731868 C116.41806,266.731868 117.603455,265.563152 117.603455,264.128938 C117.603455,262.694723 116.41806,261.526007 114.963377,261.526007 L114.963377,261.526007 L109.683222,261.526007 C105.316534,261.526007 101.762989,258.022463 101.762989,253.717216 C101.762989,249.411969 105.316534,245.908425 109.683222,245.908425 L109.683222,245.908425 L109.683222,240.702564 L114.963377,240.702564 Z M150.846367,70.4053453 L150.846367,79.279725 C158.193544,79.279725 164.172565,85.2521825 164.172565,92.5912945 L164.172565,92.5912945 L155.288433,92.5912945 C155.288433,90.1464029 153.293945,88.1541046 150.846367,88.1541046 L150.846367,88.1541046 L141.962235,88.1541046 C139.514657,88.1541046 137.520169,90.1464029 137.520169,92.5912945 C137.520169,95.0361861 139.514657,97.0284843 141.962235,97.0284843 L141.962235,97.0284843 L150.846367,97.0284843 C158.193544,97.0284843 164.172565,103.000942 164.172565,110.340054 C164.172565,117.679166 158.193544,123.651623 150.846367,123.651623 L150.846367,123.651623 L150.846367,132.526003 L141.962235,132.526003 L141.962235,123.651623 C134.615058,123.651623 128.636037,117.679166 128.636037,110.340054 L128.636037,110.340054 L137.520169,110.340054 C137.520169,112.784945 139.514657,114.777244 141.962235,114.777244 L141.962235,114.777244 L150.846367,114.777244 C153.293945,114.777244 155.288433,112.784945 155.288433,110.340054 C155.288433,107.895162 153.293945,105.902864 150.846367,105.902864 L150.846367,105.902864 L141.962235,105.902864 C134.615058,105.902864 128.636037,99.9304064 128.636037,92.5912945 C128.636037,85.2521825 134.615058,79.279725 141.962235,79.279725 L141.962235,79.279725 L141.962235,70.4053453 L150.846367,70.4053453 Z M362.170639,30.6871795 L362.170639,36.8520147 C367.331271,36.8520147 371.530914,41.0009487 371.530914,46.0992674 L371.530914,46.0992674 L365.290731,46.0992674 C365.290731,44.4008553 363.88981,43.0168498 362.170639,43.0168498 L362.170639,43.0168498 L355.930456,43.0168498 C354.211286,43.0168498 352.810364,44.4008553 352.810364,46.0992674 C352.810364,47.7976795 354.211286,49.181685 355.930456,49.181685 L355.930456,49.181685 L362.170639,49.181685 C367.331271,49.181685 371.530914,53.330619 371.530914,58.4289377 C371.530914,63.5272564 367.331271,67.6761905 362.170639,67.6761905 L362.170639,67.6761905 L362.170639,73.8410256 L355.930456,73.8410256 L355.930456,67.6761905 C350.769825,67.6761905 346.570181,63.5272564 346.570181,58.4289377 L346.570181,58.4289377 L352.810364,58.4289377 C352.810364,60.1273498 354.211286,61.5113553 355.930456,61.5113553 L355.930456,61.5113553 L362.170639,61.5113553 C363.88981,61.5113553 365.290731,60.1273498 365.290731,58.4289377 C365.290731,56.7305256 363.88981,55.3465201 362.170639,55.3465201 L362.170639,55.3465201 L355.930456,55.3465201 C350.769825,55.3465201 346.570181,51.1975861 346.570181,46.0992674 C346.570181,41.0009487 350.769825,36.8520147 355.930456,36.8520147 L355.930456,36.8520147 L355.930456,30.6871795 L362.170639,30.6871795 Z M467.173724,0 L467.173724,3.97289377 C470.547983,3.97289377 473.293904,6.64665128 473.293904,9.93223443 L473.293904,9.93223443 L469.213784,9.93223443 C469.213784,8.8377022 468.297797,7.94578755 467.173724,7.94578755 L467.173724,7.94578755 L463.093604,7.94578755 C461.969531,7.94578755 461.053544,8.8377022 461.053544,9.93223443 C461.053544,11.0267667 461.969531,11.9186813 463.093604,11.9186813 L463.093604,11.9186813 L467.173724,11.9186813 C470.547983,11.9186813 473.293904,14.5924388 473.293904,17.878022 C473.293904,21.1636051 470.547983,23.8373626 467.173724,23.8373626 L467.173724,23.8373626 L467.173724,27.8102564 L463.093604,27.8102564 L463.093604,23.8373626 C459.719345,23.8373626 456.973424,21.1636051 456.973424,17.878022 L456.973424,17.878022 L461.053544,17.878022 C461.053544,18.9725542 461.969531,19.8644689 463.093604,19.8644689 L463.093604,19.8644689 L467.173724,19.8644689 C468.297797,19.8644689 469.213784,18.9725542 469.213784,17.878022 C469.213784,16.7834897 468.297797,15.8915751 467.173724,15.8915751 L467.173724,15.8915751 L463.093604,15.8915751 C459.719345,15.8915751 456.973424,13.2178176 456.973424,9.93223443 C456.973424,6.64665128 459.719345,3.97289377 463.093604,3.97289377 L463.093604,3.97289377 L463.093604,0 L467.173724,0 Z" id="Combined-Shape" fill="url(#linearGradient-1)" fill-rule="nonzero"></path>
                    </g>
                    <g id="app-icon" transform="translate(161.000000, 128.000000)">
                        <mask id="mask-3" fill="white">
                            <use xlink:href="#path-2"></use>
                        </mask>
                        <g id="bg">
                            <use fill="black" fill-opacity="1" filter="url(#filter-4)" xlink:href="#path-2"></use>
                            <use fill="#FFFFFF" fill-rule="evenodd" xlink:href="#path-2"></use>
                        </g>
                        <circle id="Oval-3" fill="url(#linearGradient-5)" mask="url(#mask-3)" cx="124.5" cy="124.5" r="96.5"></circle>
                        <path d="M147.411471,148.844444 L147.411471,174.355556 C147.411471,179.657489 143.165131,184 137.854701,184 C132.544271,184 128.239316,179.701934 128.239316,174.4 L128.240706,166.888889 C115.874853,166.888889 109.588466,166.888889 109.381546,166.888889 C83.2142085,166.888889 62,145.681783 62,119.466667 C62,93.2515505 83.2128184,72 109.380156,72 C109.587076,72 118.722466,72 136.786324,72 C142.686802,71.9985804 147.412624,76.7730585 147.414046,82.6640957 L147.411471,94.4 L177.384615,94.4 C182.695046,94.4 187,98.6980664 187,104 C187,109.301934 182.636432,113.533333 177.326001,113.533333 L147.411471,113.533333 L147.411471,129.711111 L177.326001,129.711111 C182.636432,129.711111 187,133.898066 187,139.2 C187,144.501934 182.636432,148.844444 177.326001,148.844444 L147.411471,148.844444 Z" id="Combined-Shape" fill="#FFFFFF" mask="url(#mask-3)" transform="translate(124.500000, 128.000000) scale(-1, 1) translate(-124.500000, -128.000000) "></path>
                    </g>
                </g>
            </g>
        </g>
    </g>
</svg>